<?xml version="1.0" encoding="UTF-8"?>
<!-- Source: iconfont.cn collection 887, icon 736570 "auto-fix", creator TwoSim. -->
<svg xmlns="http://www.w3.org/2000/svg" viewBox="0 0 1024 1024">
  <path fill="#2f84eb" d="M320 238.933333 426.666667 298.666667 366.933333 192 426.666667 85.333333 320 145.066667 213.333333 85.333333 273.066667 192 213.333333 298.666667ZM832 657.066667 725.333333 597.333333 785.066667 704 725.333333 810.666667 832 750.933333 938.666667 810.666667 878.933333 704 938.666667 597.333333ZM938.666667 85.333333 832 145.066667 725.333333 85.333333 785.066667 192 725.333333 298.666667 832 238.933333 938.666667 298.666667 878.933333 192ZM614.4 311.466667c-17.066667-17.066667-42.666667-17.066667-59.733333 0L55.466667 810.666667c-17.066667 17.066667-17.066667 42.666667 0 59.733333l98.133333 98.133333c17.066667 17.066667 42.666667 17.066667 59.733333 0L712.533333 469.333333c17.066667-17.066667 17.066667-42.666667 0-59.733333L614.4 311.466667zM567.466667 546.133333l-89.6-89.6 102.4-102.4 89.6 89.6L567.466667 546.133333z"/>
</svg>
