<?xml version="1.0" standalone="no"?><!DOCTYPE svg PUBLIC "-//W3C//DTD SVG 1.1//EN" "http://www.w3.org/Graphics/SVG/1.1/DTD/svg11.dtd"><svg t="1782538703189" class="icon" viewBox="0 0 1024 1024" version="1.1" xmlns="http://www.w3.org/2000/svg" p-id="9782" xmlns:xlink="http://www.w3.org/1999/xlink" width="200" height="200"><path d="M371.2 237.9h610.5c22.8 0 41.3-18.5 41.3-41.3s-18.5-41.3-41.3-41.3H371.2c-22.8 0-41.3 18.5-41.3 41.3s18.5 41.3 41.3 41.3zM981.7 468.9H371.2c-22.8 0-41.3 18.5-41.3 41.3 0 22.8 18.5 41.3 41.3 41.3h610.5c22.8 0 41.3-18.5 41.3-41.3 0-22.8-18.5-41.3-41.3-41.3zM981.7 805.3H371.2c-22.8 0-41.3 18.5-41.3 41.3s18.5 41.3 41.3 41.3h610.5c22.8 0 41.3-18.5 41.3-41.3s-18.5-41.3-41.3-41.3zM120.1 78.5C54.9 78.5 2 131.5 2 196.6s53 118.1 118.1 118.1 118.1-53 118.1-118.1c-0.1-65.1-53-118.1-118.1-118.1z m0 167.3c-27.1 0-49.2-22.1-49.2-49.2s22.1-49.2 49.2-49.2 49.2 22.1 49.2 49.2-22.1 49.2-49.2 49.2zM120.1 728.5C54.9 728.5 2 781.5 2 846.6s53 118.1 118.1 118.1 118.1-53 118.1-118.1c-0.1-65.1-53-118.1-118.1-118.1z m0 167.3c-27.1 0-49.2-22.1-49.2-49.2 0-27.2 22.1-49.2 49.2-49.2s49.2 22.1 49.2 49.2-22.1 49.2-49.2 49.2zM179.4 434.8L98.1 516l-27-27c-13.4-13.4-35.2-13.4-48.7 0-13.4 13.4-13.4 35.2 0 48.7l45.5 45.5c8.1 8.1 18.8 12.5 30.2 12.5s22.2-4.5 30.2-12.5l99.7-99.7c13.4-13.4 13.4-35.2 0-48.7s-35.2-13.5-48.6 0z" fill="#1296db" p-id="9783"></path></svg>