<?xml version="1.0" standalone="no"?><!DOCTYPE svg PUBLIC "-//W3C//DTD SVG 1.1//EN" "http://www.w3.org/Graphics/SVG/1.1/DTD/svg11.dtd"><svg t="1782538584581" class="icon" viewBox="0 0 1024 1024" version="1.1" xmlns="http://www.w3.org/2000/svg" p-id="7723" xmlns:xlink="http://www.w3.org/1999/xlink" width="200" height="200"><path d="M870.4 915.2H153.6c-37.1 0-67.2-30.1-67.2-67.2V310.4c0-37.1 30.1-67.2 67.2-67.2h716.8c37.1 0 67.2 30.1 67.2 67.2V848c0 37.1-30.1 67.2-67.2 67.2zM176 825.6h672V332.8H176v492.8z" fill="#1296db" p-id="7724"></path><path d="M332.8 332.8c-24.7 0-44.8-20.1-44.8-44.8V153.6c0-24.7 20.1-44.8 44.8-44.8 24.7 0 44.8 20.1 44.8 44.8V288c0 24.7-20.1 44.8-44.8 44.8zM691.2 332.8c-24.7 0-44.8-20.1-44.8-44.8V153.6c0-24.7 20.1-44.8 44.8-44.8 24.7 0 44.8 20.1 44.8 44.8V288c0 24.7-20.1 44.8-44.8 44.8zM288 444.8h224v89.6H288zM288 624h448v89.6H288z" fill="#1296db" p-id="7725"></path></svg>